<svg width="19" height="24" viewBox="0 0 19 24" fill="none" xmlns="http://www.w3.org/2000/svg">
<path d="M5.51189 1.34868C7.10971 0.358684 8.50427 0.757642 9.34203 1.39314C9.68553 1.65371 9.85728 1.78399 9.95833 1.78399C10.0594 1.78399 10.2311 1.65371 10.5746 1.39314C11.4124 0.757642 12.807 0.358684 14.4048 1.34868C16.5017 2.64795 16.9762 6.93429 12.1394 10.5505C11.2181 11.2393 10.7575 11.5837 9.95833 11.5837C9.15921 11.5837 8.69857 11.2393 7.7773 10.5505C2.94044 6.93429 3.41493 2.64795 5.51189 1.34868Z" stroke="white" stroke-width="1.5" stroke-linecap="round"/>
<path d="M0.75 13.7507H3.34439C3.66305 13.7507 3.97733 13.8225 4.26235 13.9604L6.47449 15.0308C6.75951 15.1687 7.07379 15.2405 7.39246 15.2405H8.52197C9.61441 15.2405 10.5 16.0974 10.5 17.1546C10.5 17.1973 10.4707 17.2348 10.4283 17.2466L7.67561 18.0076C7.18182 18.1442 6.65308 18.0966 6.19375 17.8744L3.82895 16.7302" stroke="white" stroke-width="1.5" stroke-linecap="round" stroke-linejoin="round"/>
<path d="M10.5 16.459L15.4755 14.9303C16.3575 14.6555 17.311 14.9814 17.8635 15.7465C18.263 16.2997 18.1004 17.0919 17.5183 17.4277L9.37645 22.1254C8.85861 22.4242 8.24769 22.4971 7.67808 22.3281L0.75 20.2723" stroke="white" stroke-width="1.5" stroke-linecap="round" stroke-linejoin="round"/>
</svg>
