<svg width="24" height="24" viewBox="0 0 24 24" fill="none" xmlns="http://www.w3.org/2000/svg">
<path d="M13.75 5.08333H22.4167M18.0833 0.75L18.0833 9.41667" stroke="white" stroke-width="1.5" stroke-linecap="round" stroke-linejoin="round"/>
<path d="M5.19038 19.7083C3.78193 19.5697 2.72682 19.1467 2.0192 18.439C0.75 17.1698 0.75 15.1271 0.75 11.0416V10.4999C0.75 6.41441 0.75 4.37166 2.0192 3.10246C3.28841 1.83325 5.33116 1.83325 9.41667 1.83325H11.0417M5.625 18.0833C5.40242 19.1686 4.40917 21.5137 5.42534 22.2705C5.9565 22.6568 6.8029 22.2441 8.49569 21.4187C9.68373 20.8394 10.8859 20.1751 12.1841 19.8762C12.6592 19.768 13.1428 19.7218 13.75 19.7083C17.8355 19.7083 19.8783 19.7083 21.1475 18.439C22.3593 17.2272 22.4141 15.3102 22.4165 11.5833" stroke="white" stroke-width="1.5" stroke-linecap="round"/>
<path d="M7.25 13.7499H13.75M7.25 8.33325H10.5" stroke="white" stroke-width="1.5" stroke-linecap="round" stroke-linejoin="round"/>
</svg>
