<svg width="24" height="19" viewBox="0 0 24 19" fill="none" xmlns="http://www.w3.org/2000/svg">
<path d="M0.75 9.41667C0.75 5.58439 0.75 3.66825 1.89053 2.38897C2.07295 2.18436 2.27401 1.99513 2.49141 1.82344C3.85065 0.75 5.88654 0.75 9.95833 0.75H13.2083C17.2801 0.75 19.316 0.75 20.6753 1.82344C20.8927 1.99513 21.0937 2.18436 21.2761 2.38897C22.4167 3.66825 22.4167 5.58439 22.4167 9.41667C22.4167 13.2489 22.4167 15.1651 21.2761 16.4444C21.0937 16.649 20.8927 16.8382 20.6753 17.0099C19.316 18.0833 17.2801 18.0833 13.2083 18.0833H9.95833C5.88654 18.0833 3.85065 18.0833 2.49141 17.0099C2.27401 16.8382 2.07295 16.649 1.89053 16.4444C0.75 15.1651 0.75 13.2489 0.75 9.41667Z" stroke="white" stroke-width="1.5" stroke-linecap="round" stroke-linejoin="round"/>
<path d="M9.41602 13.75H11.041" stroke="white" stroke-width="1.5" stroke-miterlimit="10" stroke-linecap="round" stroke-linejoin="round"/>
<path d="M14.291 13.75L18.0827 13.75" stroke="white" stroke-width="1.5" stroke-miterlimit="10" stroke-linecap="round" stroke-linejoin="round"/>
<path d="M0.75 6.16675H22.4167" stroke="white" stroke-width="1.5" stroke-linejoin="round"/>
</svg>
