<svg width="24" height="21" viewBox="0 0 24 21" fill="none" xmlns="http://www.w3.org/2000/svg">
<path d="M4.19507 14.0714C2.8327 14.8699 -0.739353 16.5005 1.43627 18.5408C2.49904 19.5375 3.68269 20.2503 5.17084 20.2503H13.6625C15.1506 20.2503 16.3343 19.5375 17.3971 18.5408C19.5727 16.5005 16.0006 14.8699 14.6383 14.0714C11.4435 12.1989 7.38981 12.1989 4.19507 14.0714Z" stroke="white" stroke-width="1.5" stroke-linecap="round" stroke-linejoin="round"/>
<path d="M13.7497 5.08358C13.7497 7.47681 11.8096 9.41691 9.41634 9.41691C7.02311 9.41691 5.08301 7.47681 5.08301 5.08358C5.08301 2.69034 7.02311 0.750244 9.41634 0.750244C11.8096 0.750244 13.7497 2.69034 13.7497 5.08358Z" stroke="white" stroke-width="1.5"/>
<path d="M17 3.69072C17 3.69072 18.0833 4.25562 18.625 5.08358C18.625 5.08358 20.25 1.83358 22.4167 0.750244" stroke="white" stroke-width="1.5" stroke-linecap="round" stroke-linejoin="round"/>
</svg>
